<?xml version="1.0" encoding="UTF-8"?>
<svg width="29px" height="29px" viewBox="0 0 29 29" version="1.1" xmlns="http://www.w3.org/2000/svg" xmlns:xlink="http://www.w3.org/1999/xlink">
    <!-- Generator: Sketch 46.2 (44496) - http://www.bohemiancoding.com/sketch -->
    <title>icon/tourist</title>
    <desc>Created with Sketch.</desc>
    <defs></defs>
    <g id="Symbols" stroke="none" stroke-width="1" fill="none" fill-rule="evenodd">
        <g id="icon/tourist" transform="translate(-1.000000, -2.000000)">
            <g>
                <rect id="Rectangle-4" x="0" y="0" width="32" height="32"></rect>
                <path d="M11.0639821,26.9244615 C10.9235794,25.8969195 10.7811507,24.9032807 10.6349965,23.9343761 C10.5587277,23.430204 10.6971199,22.980175 11.0657914,22.6136981 C12.204538,21.4809623 13.1269784,20.5597014 15.1525514,18.5339666 L15.2036137,18.4829002 C15.8769016,17.8095586 16.1975948,17.4888919 16.5824597,17.1042377 C16.6104963,17.076514 16.6104963,17.076514 16.6371537,17.0511565 C16.6840459,17.0069084 16.8312576,16.8764765 16.8397319,16.8687952 L17.7973212,16.0008151 L18.3971134,17.1456365 C19.763534,19.753738 19.763534,19.753738 21.1264387,22.3551602 C22.3312582,24.6548341 23.013079,25.9562368 23.6693732,27.2088894 C24.0169111,26.8622786 24.241166,26.6396181 24.4697871,26.4179839 C24.0571415,24.6449617 23.6907393,23.0637852 22.9744093,19.9678992 L22.9290005,19.7716475 C22.1814063,16.5406275 21.8466562,15.0958749 21.42828,13.2976301 C21.2946275,12.7242441 21.4473132,12.2275291 21.8591531,11.8189975 C22.8755687,10.8094004 23.6981647,9.98819118 25.5057924,8.18052696 C26.4575859,7.22871417 26.879945,6.8065354 27.3944529,6.29291582 C27.6578217,6.02993575 27.7949567,5.81248867 27.8478868,5.58058496 C28.0520616,4.68573621 27.4651108,3.95410426 26.5503738,4.00237235 C26.2073165,4.02044693 25.9174905,4.16462259 25.6087332,4.47465996 C24.7295075,5.35705982 24.0182531,6.06896859 22.4442157,7.64302916 C21.2294485,8.8578142 20.690295,9.39725599 20.0251785,10.0637521 C19.6596745,10.429779 19.2448594,10.6111407 18.679802,10.4774551 C17.5094659,10.2008831 16.5665361,9.98221833 14.4623813,9.49738057 L14.2521968,9.44894914 C13.836335,9.35311351 13.836335,9.35311351 13.4203674,9.25716009 C12.8975148,9.1365141 12.4803917,9.04033886 11.5402326,8.82362434 L11.3639437,8.78298824 C8.5382634,8.1316411 7.07891086,7.79432645 5.46635988,7.4186015 C5.24884137,7.64085449 5.02387436,7.86696156 4.67454417,8.21550183 C5.98302345,8.90095062 7.34378363,9.61382263 10.0454351,11.0291733 C12.3913176,12.2581411 13.41222,12.7929667 14.7360948,13.4864841 L15.8478168,14.0688643 L15.031866,15.0224454 C15.0260369,15.0292578 14.9241767,15.1522608 14.8849119,15.1959852 C14.8526493,15.2314193 14.8526493,15.2314193 14.8148635,15.2700416 C14.6366866,15.4483494 14.6366866,15.4483494 14.4585034,15.6266688 L14.3591065,15.7261419 C11.8257619,18.2614281 10.6568915,19.4289821 9.22267664,20.8536664 C8.92549574,21.1489504 8.46294476,21.3074285 8.04631238,21.2539161 C7.89144574,21.2340369 7.76521606,21.2184502 7.48500316,21.1843108 C7.43750104,21.1785235 7.43750104,21.1785235 7.38988001,21.1727163 C6.39538034,21.0513829 5.87794695,20.9755247 5.27876372,20.8472178 C4.9647282,20.779995 4.91389649,20.7956576 4.77619675,20.9759814 C4.73406978,21.0311341 4.69131117,21.0842962 4.64677314,21.1369335 C4.91152151,21.2838483 5.13126636,21.4057868 5.1972807,21.4424339 C5.86650374,21.8139455 6.38433616,22.1019721 6.88523756,22.3815246 C7.31458314,22.6211419 7.71613762,22.8460017 8.10299052,23.0635183 C8.39797066,23.2293074 8.65711401,23.4900349 8.82291208,23.7840989 C9.20559779,24.4621407 9.51015797,25.0097038 10.1834273,26.2261556 C10.4661023,26.7368871 10.5954767,26.9704323 10.7477833,27.2446926 C10.8663912,27.1256662 10.9675447,27.0232417 11.0639821,26.9244615 Z M5.91055936,24.1279502 C5.41119056,23.849253 4.89456978,23.5619004 4.22655181,23.1910578 C4.05684197,23.0968453 2.86681043,22.4365471 2.51445824,22.2408669 L1.35527675,21.597111 L2.29285967,20.6595281 C2.33848589,20.6139018 2.36563107,20.5873493 2.43648204,20.5189056 C2.51274933,20.4455951 2.75629664,20.2168615 2.78752109,20.1871309 C2.97841845,20.0053662 3.09525496,19.8818233 3.18672856,19.7620659 C3.82205423,18.9300792 4.66465656,18.6704526 5.6974721,18.891538 C6.2206541,19.0035703 6.69483923,19.0730881 7.63209286,19.1874372 C7.67942944,19.1932097 7.67942944,19.1932097 7.72688236,19.198991 C7.84536959,19.2134268 7.93690101,19.2246153 8.01498172,19.2342469 C9.29725022,17.9599323 10.4248495,16.833704 12.6208512,14.6362051 C11.7280619,14.1685028 10.7406876,13.651238 9.12266809,12.8035851 C5.61127075,10.964022 4.36348436,10.3103404 2.55757899,9.3643402 L1.43614705,8.77689254 L2.26731538,7.82197707 C2.28160531,7.8055596 2.3623784,7.70947203 2.39011513,7.67780842 C2.43651217,7.62553558 2.43651217,7.62553558 2.49393378,7.56631413 C2.6442587,7.41546801 2.76899601,7.29095699 3.0325246,7.02838913 C3.63713771,6.42598024 3.90343854,6.15831576 4.22432547,5.82736584 C4.6127202,5.42680561 5.0999882,5.27899335 5.64673594,5.40703251 C7.3705766,5.80900527 8.82965739,6.14636317 11.8131828,6.83409515 L11.9894682,6.87473045 C12.9297019,7.09146219 13.3469953,7.18767667 13.8700647,7.30837268 C14.2856023,7.40422691 14.2856023,7.40422691 14.7012926,7.50002302 L14.9114527,7.54844883 C16.8174022,7.98761628 17.772894,8.20892409 18.8074653,8.4526551 C19.3903232,7.86874562 19.9342703,7.32456356 21.0033944,6.25542371 C22.6031868,4.65560778 23.3138711,3.9442696 24.1917854,3.063186 C24.831611,2.42070753 25.5748126,2.05099755 26.4450661,2.00514671 C28.7094781,1.88566006 30.2922041,3.85852184 29.7977592,6.02555429 C29.6505934,6.67033437 29.3165695,7.1999766 28.8075329,7.70826202 C28.2934823,8.22142513 27.8714062,8.64332098 26.9634125,9.55133304 C25.2077382,11.3070429 24.3782212,12.1353179 23.4304049,13.0772057 C23.8248105,14.7729264 24.1622971,16.2296757 24.8775217,19.3207983 L24.9229301,19.5170479 C25.6689532,22.7412638 26.0352885,24.3219509 26.4696153,26.1875436 C26.6057572,26.7722243 26.4553034,27.2839114 26.0223336,27.6992842 C25.6857569,28.022123 25.4177945,28.2887211 24.8198753,28.890922 C24.5805337,29.1319776 24.4739152,29.2391584 24.3413442,29.37169 C24.2474157,29.4656185 24.2474157,29.4656185 24.1247639,29.5884375 L23.1630179,30.5519417 L22.531224,29.3460677 C21.6220743,27.6108181 20.9415164,26.3118323 19.3573383,23.2880656 C18.238789,21.1530527 18.0366512,20.7672255 17.2497197,19.2652003 C17.0741682,19.4407438 16.8709379,19.643983 16.6178837,19.8970573 C14.6419002,21.8731987 13.7123293,22.8017125 12.6465983,23.862179 C12.7953615,24.8561382 12.940276,25.8754672 13.0831005,26.9295266 C13.1357306,27.3159084 13.0412186,27.7538515 12.7394099,28.0689179 C12.4267141,28.3951943 12.173943,28.6492217 11.6047565,29.214124 C11.4607232,29.3570735 11.4607232,29.3570735 11.3220134,29.4950109 C11.2369653,29.574325 11.2369653,29.574325 11.1708945,29.6231205 C11.131162,29.6514958 11.0648967,29.6930427 11.0718357,29.6883374 L10.1729348,30.2978662 L9.63952799,29.3518083 C9.60768936,29.2953388 9.23677248,28.640084 9.12861016,28.4472598 C9.06494477,28.3336126 9.06494477,28.3336126 9.0013054,28.2192858 C8.84746738,27.9422726 8.71778699,27.7081769 8.45260951,27.2290596 C7.77107422,25.997673 7.46759603,25.451984 7.09466701,24.7910393 C6.71830853,24.5794672 6.32768821,24.3607493 5.91055936,24.1279502 Z" id="Fill-1" fill="#000000" fill-rule="nonzero"></path>
            </g>
        </g>
    </g>
</svg>