<?xml version="1.0" encoding="UTF-8"?><svg width="30px" height="24px" viewBox="0 0 30 24" version="1.1" xmlns="http://www.w3.org/2000/svg" xmlns:xlink="http://www.w3.org/1999/xlink">        <title>icon/coach</title>    <desc>Created with Sketch.</desc>    <defs></defs>    <g id="Symbols" stroke="none" stroke-width="1" fill="none" fill-rule="evenodd">        <g id="icon/coach" transform="translate(-1.000000, -3.000000)" fill="#000000">            <g id="Fill-1">                <path d="M16.0223929,15.1921286 C15.5166786,15.4404857 15.06625,15.8626286 14.7593929,15.7762714 C13.6721071,15.4694143 12.6126786,15.0322714 11.59225,14.5415571 C11.36125,14.4303429 11.1596071,13.8408429 11.2541071,13.5871286 C11.3496786,13.3297714 11.8933214,13.0025571 12.1294643,13.0741286 C13.2454643,13.4120571 14.3329643,13.8541286 15.4065357,14.3146286 C15.6150357,14.4039857 15.7170357,14.7412714 16.0223929,15.1921286 M3.21860714,6.32027143 C3.05275,6.13341429 3.12282143,5.50084286 3.31739286,5.29705714 C3.50446429,5.10098571 4.14603571,5.02534286 4.32625,5.18755714 C5.35632143,6.11455714 6.31117857,7.12534286 7.28146429,8.1177 C7.37210714,8.21027143 7.39225,8.37184286 7.48953571,8.61077143 C7.32689286,8.8197 7.18696429,9.15955714 6.94439286,9.26562857 C6.70310714,9.37127143 6.25182143,9.3582 6.07739286,9.19705714 C5.08460714,8.27948571 4.11603571,7.32977143 3.21860714,6.32027143 M9.49803571,7.60384286 C9.39946429,6.36955714 9.40160714,5.11812857 9.49996429,3.88384286 C9.52503571,3.56905714 10.0418929,3.29348571 10.3328929,3.00012857 C10.60525,3.30934286 11.0333929,3.58298571 11.1143929,3.93634286 C11.2459643,4.50934286 11.1499643,5.13484286 11.1506071,5.73827143 C11.15125,6.3417 11.2474643,6.9672 11.1161071,7.54041429 C11.0333929,7.90127143 10.6095357,8.18391429 10.3386786,8.50148571 C10.0448929,8.20341429 9.52353571,7.92334286 9.49803571,7.60384286 M1.49446429,13.0254857 C1.32625,13.0209857 1.16467857,12.7784143 1.00010714,12.6464143 L1.00010714,11.7892714 C2.63253571,11.6883429 4.26453571,11.5593429 5.89846429,11.5229143 C6.10160714,11.5182 6.47082143,12.0005571 6.48025,12.2673429 C6.48925,12.5289857 6.14639286,13.0284857 5.94303571,13.0364143 C4.46210714,13.0934143 2.97710714,13.0651286 1.49446429,13.0254857 M28.8298214,18.0772714 C28.56925,20.2944857 27.1031071,21.9352714 24.8601786,22.4043429 C20.47525,23.3217 16.08175,24.1987714 11.6406786,25.1030571 C11.2748929,23.4391286 11.6741071,22.3145571 12.92875,21.2480571 C15.6150357,18.9644143 18.13225,16.4823429 20.7270357,14.0902714 C22.5611071,12.3999857 24.4211071,12.0590571 26.2766071,13.0477714 C28.0369643,13.9859143 29.0713214,16.0231286 28.8298214,18.0772714 M11.26225,20.5426286 C10.67425,21.0954857 10.2268214,21.1715571 9.50017857,20.8565571 C7.93439286,20.1768429 6.32017857,19.6085571 4.59989286,18.9464143 C4.86389286,18.6618429 5.05589286,18.4261286 5.27660714,18.2212714 C7.81417857,15.8649857 10.3828214,13.5412714 12.8880357,11.1511286 C14.6031786,9.51462857 16.4644643,9.06998571 18.65725,10.0563429 C19.5973214,10.4793429 20.5783214,10.8114857 21.4309643,11.1423429 C18.0075357,14.2966286 14.6104643,17.3937 11.26225,20.5426286 M4.14410714,22.6368429 C3.75325,22.4439857 3.80810714,21.3472714 3.59960714,20.4031286 C5.75360714,21.2375571 7.64425,21.8611286 9.41082143,22.7356286 C9.81496429,22.9359857 9.79096429,24.0009857 10.0489643,24.9948429 C7.83775,24.1434857 5.92846429,23.5173429 4.14410714,22.6368429 M25.0268929,8.96798571 C25.3920357,8.86362857 26.0876071,9.11905714 26.28925,9.43577143 C26.5515357,9.84805714 26.47075,10.4789143 26.5691071,11.2689857 C25.4648929,10.8447 24.7168214,10.5571286 23.6151786,10.1337 C24.1993214,9.6237 24.5578214,9.10212857 25.0268929,8.96798571 M27.8511786,12.0177 C28.7038214,9.8622 28.2126786,8.22012857 26.5618214,7.45298571 C24.8691786,6.66655714 23.4045357,7.34734286 22.1494643,9.56305714 C21.1414643,9.17605714 20.1116071,8.80105714 19.0976071,8.38705714 C16.4016786,7.28627143 14.0228929,7.76284286 11.90425,9.74648571 C9.56125,11.9401286 7.19767857,14.1121286 4.83625,16.2858429 C1.99439286,18.9018429 2.01025,18.8982 2.05567857,22.7313429 C2.06489286,23.5012714 2.36125,23.8981286 3.05296429,24.1567714 C5.38717857,25.0295571 7.70317857,25.9509857 10.0403929,26.8156286 C10.4173214,26.9551286 10.8863929,26.9969143 11.2796071,26.9182714 C15.9936786,25.9743429 20.7028214,25.0059857 25.41025,24.0294857 C27.7774643,23.5383429 29.3025357,22.0679143 30.1538929,19.8481286 C30.3058214,19.4523429 30.4328929,19.0471286 30.5715357,18.6464143 L30.5715357,16.2892714 C30.0366786,14.6105571 29.3273929,13.0385571 27.8511786,12.0177"></path>            </g>        </g>    </g></svg>