<?xml version="1.0" encoding="UTF-8"?><svg width="32px" height="30px" viewBox="0 0 32 30" version="1.1" xmlns="http://www.w3.org/2000/svg" xmlns:xlink="http://www.w3.org/1999/xlink">        <title>icon/home</title>    <desc>Created with Sketch.</desc>    <defs></defs>    <g id="Symbols" stroke="none" stroke-width="1" fill="none" fill-rule="evenodd">        <g id="icon/home" transform="translate(0.000000, -1.000000)" fill="#000000">            <g id="Fill-1">                <path d="M26.6860719,14.5780022 L28.4381683,14.5780022 L15.9706414,3.01479142 L3.53288306,14.5780022 L5.05108312,14.5780022 C5.3236787,14.5780022 5.55714981,14.6753972 5.75192169,14.8701872 C5.94626831,15.0649772 6.04365425,15.29847 6.04365425,15.5706656 L6.04365425,27.1921433 C6.06279123,27.6791183 6.24310406,28.0929407 6.58374223,28.4331852 C6.92438039,28.7738551 7.33816433,28.9444027 7.82466878,28.9444027 L11.7953786,28.9444027 L11.7664605,17.9651366 C11.7855975,17.0503041 12.1168798,16.2766731 12.7590316,15.6438182 C13.4016087,15.0113887 14.1700646,14.6945359 15.0656751,14.6945359 L15.0950184,14.6945359 L16.8760329,14.6945359 C17.7907804,14.6945359 18.5694427,15.0113887 19.2115945,15.6438182 C19.8541716,16.2766731 20.1752475,17.0503041 20.1752475,17.9651366 L20.1752475,28.9444027 L23.795538,28.9444027 L23.8248814,28.9444027 C24.3305228,28.9444027 24.7634437,28.7644984 25.1240694,28.4038391 C25.4838446,28.0440305 25.6641574,27.6110694 25.6641574,27.1045303 L25.6641574,15.5706656 C25.6641574,15.29847 25.7662213,15.0649772 25.9707743,14.8701872 C26.1753273,14.6753972 26.4134763,14.5780022 26.6860719,14.5780022 L26.6860719,14.5780022 Z M31.5621733,14.7532281 C31.6982584,14.8310591 31.8054255,14.9429144 31.8832492,15.0887943 C31.9606476,15.2346741 32.0001974,15.3954397 32.0001974,15.5706656 C32.0001974,15.8437119 31.9023862,16.0772047 31.7080395,16.2715694 C31.5132677,16.4663594 31.2797966,16.5633291 31.007201,16.5633291 L27.678643,16.5633291 L27.678643,27.1045303 C27.678643,28.1558859 27.3039836,29.0562581 26.5546647,29.8056467 C25.8053457,30.55461 24.8952762,30.9297296 23.8248814,30.9297296 L20.1752475,30.9297296 C19.6300564,30.9297296 19.1631142,30.7400432 18.7739957,30.3602453 C18.3840266,29.9808726 18.1798989,29.508358 18.1607619,28.9444027 L18.1607619,17.9651366 C18.1607619,17.6146847 18.0336073,17.313143 17.7809993,17.0596608 C17.5279659,16.8070292 17.226027,16.6802881 16.8760329,16.6802881 L15.0950184,16.6802881 C14.7250369,16.6802881 14.41842,16.8070292 14.1751678,17.0596608 C13.9314903,17.313143 13.8102895,17.6146847 13.8102895,17.9651366 L13.8102895,28.9444027 C13.7907272,29.508358 13.5861742,29.9808726 13.1970557,30.3602453 C12.8075119,30.7400432 12.3405697,30.9297296 11.7953786,30.9297296 L7.82466878,30.9297296 C6.79297316,30.9297296 5.90756909,30.5648173 5.1680313,29.8349927 C4.42806825,29.1047429 4.05851199,28.2243601 4.05851199,27.1921433 L4.05851199,16.5633291 L0.992768501,16.5633291 C0.778434375,16.5633291 0.588340417,16.5050622 0.423337161,16.3881031 C0.257483373,16.2715694 0.135857262,16.1256895 0.0584588273,15.9504636 C0.0388965857,15.8917714 0.0240122713,15.8288262 0.0146564166,15.760352 C0.00445002966,15.6927284 0.000197368421,15.6289325 0.000197368421,15.5706656 C0.000197368421,15.4349931 0.0240122713,15.3035737 0.0729178756,15.1764073 C0.121398214,15.0500915 0.204325108,14.9382361 0.321273292,14.8408411 L14.6569943,1.49645015 C14.832204,1.34078827 15.0316538,1.21915084 15.2553438,1.13153788 C15.4790337,1.04392491 15.717608,1.00011842 15.9706414,1.00011842 C16.2236747,1.00011842 16.462249,1.04392491 16.685939,1.13153788 C16.909629,1.21915084 17.1095041,1.34078827 17.2847137,1.49645015 L31.5328299,14.7532281 L31.5621733,14.7532281 Z"></path>            </g>        </g>    </g></svg>