<?xml version="1.0" encoding="UTF-8"?><svg width="24px" height="26px" viewBox="0 0 24 26" version="1.1" xmlns="http://www.w3.org/2000/svg" xmlns:xlink="http://www.w3.org/1999/xlink">        <title>icon/profile</title>    <desc>Created with Sketch.</desc>    <defs></defs>    <g id="Symbols" stroke="none" stroke-width="1" fill="none" fill-rule="evenodd">        <g id="icon/profile" transform="translate(-4.000000, -3.000000)" fill="#000000">            <g id="Fill-1">                <path d="M15.96875,4.98944468 C16.6305,4.98944468 17.2545,5.11395061 17.82275,5.35946229 C18.393,5.60647405 18.90075,5.95024041 19.332,6.38101091 C19.76325,6.81278146 20.107,7.32055563 20.3535,7.89058276 C20.599,8.45910982 20.72375,9.08288951 20.72375,9.744671 C20.72375,10.3904517 20.599,11.0104812 20.353,11.5875087 C20.1065,12.1652862 19.76275,12.6770606 19.332,13.1080811 C18.90075,13.5391016 18.393,13.882868 17.82275,14.1296297 C17.255,14.3751414 16.631,14.4996473 15.96875,14.4996473 L15.92,14.4996473 C15.27275,14.4996473 14.661,14.3791416 14.101,14.1408802 C13.5395,13.9026189 13.0405,13.567603 12.61775,13.1445828 C12.194,12.7213127 11.85425,12.2212889 11.608,11.6585121 C11.3615,11.0967354 11.229,10.4917066 11.21375,9.86667681 L11.21375,9.744671 C11.21375,9.08338953 11.34225,8.46035988 11.595,7.89308288 C11.8505,7.32055563 12.195,6.81128139 12.61925,6.37976085 C13.04175,5.94949037 13.54875,5.60647405 14.12575,5.35996232 C14.70275,5.11420062 15.32275,4.98944468 15.96875,4.98944468 M24.158,25.8194361 C23.6485,26.1494518 23.07,26.3167097 22.4385,26.3167097 L9.5235,26.3167097 C8.89075,26.3167097 8.31125,26.1529519 7.8015,25.8301866 C7.289,25.5061712 6.89175,25.0749006 6.619,24.5443754 C6.49875,24.3193647 6.4075,24.0841035 6.348,23.8445921 C6.28825,23.6058307 6.25775,23.3550688 6.25775,23.0998066 C6.25775,22.7402895 6.31825,22.3957731 6.4375,22.0760079 C6.55725,21.7537426 6.724,21.4614787 6.93275,21.2082166 C7.472,20.5579356 8.08025,19.9574071 8.7405,19.4243817 C9.39775,18.8936064 10.12075,18.4355846 10.88975,18.0633169 C11.65875,17.6907992 12.47925,17.4012854 13.328,17.202776 C14.176,17.0047665 15.0645,16.9040117 15.96875,16.9040117 C16.87275,16.9040117 17.7655,17.0047665 18.62225,17.203026 C19.47875,17.4012854 20.2985,17.6905492 21.059,18.0628169 C21.82125,18.4358347 22.5455,18.8908563 23.21175,19.4141312 C23.877,19.9369061 24.4795,20.5314344 25.00525,21.1844655 C25.2295,21.4537283 25.40425,21.7537426 25.5245,22.0760079 C25.64375,22.3965232 25.704,22.7410396 25.704,23.0998066 C25.704,23.3523186 25.67025,23.6005805 25.6035,23.8378418 C25.53525,24.0806033 25.4465,24.3121143 25.34125,24.5236244 C25.07,25.0511495 24.672,25.4871703 24.158,25.8194361 M27.629,21.3404729 C27.48525,20.9514544 27.3015,20.585937 27.08025,20.2489209 L27.14075,20.2489209 L26.80675,19.8406515 C26.36225,19.2973757 25.869,18.778851 25.34075,18.2998282 C24.81175,17.8208054 24.2435,17.3780343 23.65125,16.9832655 C23.057,16.5869967 22.41975,16.2389801 21.75725,15.9489663 C21.2565,15.7299559 20.74125,15.5351966 20.22025,15.3679386 C20.96925,14.8011617 21.598,14.0828775 22.0935,13.2268367 C22.6825,12.2080382 22.9815,11.0777344 22.9815,9.86217659 C22.9645,8.92038177 22.764,8.02033893 22.38525,7.18729929 C22.008,6.35725978 21.49725,5.62547495 20.86725,5.01194575 C20.23825,4.39966661 19.4985,3.90639313 18.6685,3.54587598 C17.83475,3.18360873 16.9265,3.0001 15.96875,3.0001 C15.0275,3.0001 14.12375,3.18335872 13.282,3.54537595 C12.444,3.90589311 11.69975,4.3994166 11.07025,5.01194575 C10.4395,5.62597498 9.93275,6.35425964 9.564,7.17629876 C9.19325,8.00158804 8.997,8.89713066 8.9805,9.84217564 C8.9805,11.0702341 9.28375,12.2057881 9.882,13.2165862 C10.38325,14.0646266 11.021,14.7776605 11.78225,15.3431875 C11.24825,15.5126955 10.72325,15.711705 10.21525,15.9372157 C9.54775,16.2339799 8.90775,16.5812464 8.3125,16.9697649 C7.718,17.3577833 7.149,17.7973043 6.62125,18.275577 C6.0925,18.7545998 5.6065,19.2743746 5.17925,19.8166504 C4.8055,20.2751722 4.5125,20.7876966 4.3085,21.3404729 C4.10375,21.8949993 4,22.4867775 4,23.0998066 C4,23.5440778 4.05625,23.9768484 4.16725,24.3858678 C4.2775,24.7928872 4.428,25.1796556 4.614,25.5344225 C5.07225,26.4167145 5.74675,27.1432491 6.619,27.6937753 C7.494,28.2458015 8.47125,28.5258149 9.5235,28.5258149 L22.414,28.5258149 C23.482,28.5258149 24.4675,28.2458015 25.343,27.6937753 C26.21525,27.142749 26.89,26.4164645 27.3475,25.5351725 C27.535,25.1769055 27.68175,24.788637 27.7835,24.3811176 C27.88575,23.9725982 27.9375,23.5413276 27.9375,23.0998066 C27.9375,22.4867775 27.83375,21.8949993 27.629,21.3404729"></path>            </g>        </g>    </g></svg>