<?xml version="1.0" encoding="UTF-8"?><svg width="26px" height="20px" viewBox="0 0 26 20" version="1.1" xmlns="http://www.w3.org/2000/svg" xmlns:xlink="http://www.w3.org/1999/xlink">        <title>icon/card</title>    <desc>Created with Sketch.</desc>    <defs></defs>    <g id="Symbols" stroke="none" stroke-width="1" fill="none" fill-rule="evenodd">        <g id="icon/card" transform="translate(-3.000000, -7.000000)" fill-rule="nonzero" fill="#000000">            <g id="Rectangle-5">                <path d="M27,15 L27,13 L5,13 L5,15 L27,15 Z M27,17 L5,17 L5,23 C5,24.1045695 5.8954305,25 7,25 L25,25 C26.1045695,25 27,24.1045695 27,23 L27,17 Z M27,11 C27,9.8954305 26.1045695,9 25,9 L7,9 C5.8954305,9 5,9.8954305 5,11 L27,11 Z M7,7 L25,7 C27.209139,7 29,8.790861 29,11 L29,23 C29,25.209139 27.209139,27 25,27 L7,27 C4.790861,27 3,25.209139 3,23 L3,11 C3,8.790861 4.790861,7 7,7 Z"></path>            </g>        </g>    </g></svg>