<?xml version="1.0" encoding="UTF-8"?><svg width="28px" height="30px" viewBox="0 0 28 30" version="1.1" xmlns="http://www.w3.org/2000/svg" xmlns:xlink="http://www.w3.org/1999/xlink">        <title>icon/goodok</title>    <desc>Created with Sketch.</desc>    <defs></defs>    <g id="Symbols" stroke="none" stroke-width="1" fill="none" fill-rule="evenodd">        <g id="icon/goodok" transform="translate(-2.000000, -1.000000)">            <g>                <rect id="Rectangle-4" x="0" y="0" width="32" height="32"></rect>                <path d="M18.1072034,13.151173 C19.0473729,16.9297095 20.1667797,20.5559348 22.6051695,23.6064799 C23.4901695,24.7133419 24.5409322,25.8255437 26.1266102,25.3569136 C27.7267797,24.8842152 28.0092373,23.3539842 28.0761017,21.9557223 C28.37,15.7903002 26.6467797,10.1761477 23.1955085,5.08885445 C22.8027119,4.51012303 22.2227966,4.01937099 21.6418644,3.61405558 C20.1505085,2.57330527 18.7364407,2.97353517 18.0548305,4.66573974 C17.2265254,6.72282989 17.3727119,8.84298041 17.7591525,10.9730477 C21.8305085,10.3971133 23.8598305,11.4137074 24.5747458,14.3066017 C25.1327966,16.5638068 24.089661,18.7388808 22.1066102,19.4541583 C21.375678,18.0604734 21.4222034,18.0930206 22.254322,16.9050447 C22.569322,16.4552311 22.7709322,15.8124222 22.755678,15.2649667 C22.6936441,13.0186954 20.7459322,12.1050829 18.1072034,13.151173 M7.87847458,25.5099876 C8.48711864,25.3236035 8.99813559,25.167224 9.62279661,24.9757544 C9.91059322,25.8202039 10.1424576,26.6206637 10.4544068,27.3883219 C10.9415254,28.5867232 11.7238136,29.0314513 12.6985593,28.70369 C13.8304237,28.322785 13.9834746,27.4005272 13.7648305,26.4314826 C13.4584746,25.0746676 13.0247458,23.7468401 12.5935593,22.2232203 C11.0030508,22.6872734 9.49186441,23.1632774 7.96186441,23.5670672 C5.32415254,24.263274 2.84864407,22.8052573 2.165,20.1956261 C1.5220339,17.7416117 2.80440678,15.3226872 5.21254237,14.5303643 C6.49771186,14.1077581 7.78949153,13.6660813 9.11228814,13.4062115 C11.010678,13.0331891 12.2933051,11.9334469 13.2644915,10.352615 C13.4294915,10.0840999 13.6270339,9.83592689 13.8474576,9.52443919 C14.8672034,12.4920905 13.2314407,13.933325 11.1072881,14.7777745 C9.54067797,15.4004956 7.86779661,15.7519046 6.25389831,16.2607102 C5.05466102,16.6390724 4.11855932,17.336042 3.93677966,18.6801432 C3.69474576,20.4669383 5.07144068,21.8918991 6.97466102,21.6640681 C8.26338983,21.5094685 9.57449153,21.1893354 10.7709322,20.6909551 C13.3117797,19.6321513 15.644661,20.0824735 17.9505932,21.3093536 C18.3052542,21.4982804 18.675678,21.6579655 19.1582203,21.8878307 C18.4722881,20.194609 17.7711017,18.6687007 17.230339,17.0881232 C16.0547458,13.6523504 15.3777119,10.1212242 15.8467797,6.47847097 C15.9952542,5.32456799 16.3199153,4.13760918 16.8314407,3.09736742 C17.874322,0.976962632 19.8057627,0.416793336 21.8223729,1.63451951 C22.7805932,2.21325093 23.7220339,2.96972104 24.3876271,3.85816022 C28.7373729,9.66047668 30.6807627,16.1412006 29.6007627,23.4053479 C29.5328814,23.8599928 29.3648305,24.3070094 29.1929661,24.7369896 C28.0588136,27.5686034 25.8690678,28.2391283 23.2911017,26.6094756 C21.3616949,25.3897152 19.4129661,24.1963995 17.4288983,23.0689412 C16.6066949,22.6018368 15.6690678,22.3371358 14.4891525,21.8616403 C14.9221186,23.3397448 15.2681356,24.4926306 15.5971186,25.6503478 C16.2700847,28.0176542 15.3032203,29.9633716 13.1508475,30.5924496 C11.084661,31.1961001 9.22186441,30.0696589 8.51355932,27.7732953 C8.29186441,27.0542037 8.10576271,26.323924 7.87847458,25.5099876" id="Fill-1" fill="#000000"></path>            </g>        </g>    </g></svg>