<?xml version="1.0" encoding="UTF-8"?>
<svg width="25px" height="27px" viewBox="0 0 25 27" version="1.1" xmlns="http://www.w3.org/2000/svg" xmlns:xlink="http://www.w3.org/1999/xlink">
    <!-- Generator: Sketch 46.2 (44496) - http://www.bohemiancoding.com/sketch -->
    <title></title>
    <desc>Created with Sketch.</desc>
    <defs></defs>
    <g id="Symbols" stroke="none" stroke-width="1" fill="none" fill-rule="evenodd">
        <g id="Header/White" transform="translate(-279.000000, -12.000000)" fill="#000000">
            <g id="Header">
                <path d="M302.557617,30.0175781 L302.532227,30.0175781 C302.887697,30.4576845 303.166991,30.9527967 303.370117,31.5029297 C303.573243,32.0530626 303.674805,32.6328095 303.674805,33.2421875 C303.674805,33.6822939 303.624024,34.1054667 303.522461,34.5117188 C303.420898,34.9179708 303.277019,35.2988263 303.09082,35.6542969 C302.633787,36.5345096 301.969405,37.2496717 301.097656,37.7998047 C300.225907,38.3499376 299.256841,38.625 298.19043,38.625 L284.78418,38.625 C283.734695,38.625 282.774093,38.3499376 281.902344,37.7998047 C281.030595,37.2496717 280.366213,36.5345096 279.90918,35.6542969 C279.722981,35.2988263 279.57487,34.9179708 279.464844,34.5117188 C279.354817,34.1054667 279.299805,33.6822939 279.299805,33.2421875 C279.299805,32.6328095 279.401366,32.0530626 279.604492,31.5029297 C279.807618,30.9527967 280.095376,30.449221 280.467773,29.9921875 C280.90788,29.433591 281.39876,28.9088566 281.94043,28.4179688 C282.482099,27.9270809 283.057614,27.4827494 283.666992,27.0849609 C284.27637,26.6871725 284.923825,26.335939 285.609375,26.03125 C286.294925,25.726561 287.001624,25.4726573 287.729492,25.2695312 C286.764644,24.6601532 285.981774,23.8476613 285.380859,22.8320312 C284.779945,21.8164012 284.479492,20.6907614 284.479492,19.4550781 C284.496419,18.5071567 284.691079,17.6184937 285.063477,16.7890625 C285.435874,15.9596313 285.93945,15.2360057 286.574219,14.6181641 C287.208988,14.0003224 287.94954,13.5094419 288.795898,13.1455078 C289.642257,12.7815737 290.539383,12.5996094 291.487305,12.5996094 C292.452153,12.5996094 293.353511,12.7815737 294.191406,13.1455078 C295.029301,13.5094419 295.765622,14.0003224 296.400391,14.6181641 C297.035159,15.2360057 297.542967,15.963863 297.923828,16.8017578 C298.304689,17.6396526 298.503581,18.5325473 298.520508,19.4804688 C298.520508,20.6992248 298.224287,21.8206329 297.631836,22.8447266 C297.039385,23.8688202 296.26921,24.6855438 295.321289,25.2949219 C296.03223,25.4980479 296.726234,25.7477199 297.40332,26.0439453 C298.080407,26.3401708 298.72363,26.6914042 299.333008,27.0976562 C299.942386,27.5039083 300.517901,27.9524715 301.05957,28.4433594 C301.60124,28.9342472 302.100584,29.4589816 302.557617,30.0175781 Z M286.282227,19.4804688 C286.299154,20.1744826 286.443033,20.8304006 286.713867,21.4482422 C286.984702,22.0660838 287.352862,22.6077451 287.818359,23.0732422 C288.283856,23.5387393 288.825518,23.902668 289.443359,24.1650391 C290.061201,24.4274102 290.725582,24.5585938 291.436523,24.5585938 L291.487305,24.5585938 C292.215173,24.5585938 292.892249,24.4231784 293.518555,24.1523438 C294.14486,23.8815091 294.694985,23.509117 295.168945,23.0351562 C295.642906,22.5611955 296.015298,22.0068391 296.286133,21.3720703 C296.556967,20.7373015 296.692383,20.0644567 296.692383,19.3535156 C296.692383,18.6256474 296.556967,17.9485708 296.286133,17.3222656 C296.015298,16.6959604 295.642906,16.1458357 295.168945,15.671875 C294.694985,15.1979143 294.14486,14.8255222 293.518555,14.5546875 C292.892249,14.2838528 292.215173,14.1484375 291.487305,14.1484375 C290.776364,14.1484375 290.103519,14.2838528 289.46875,14.5546875 C288.833981,14.8255222 288.283856,15.1979143 287.818359,15.671875 C287.352862,16.1458357 286.98047,16.6959604 286.701172,17.3222656 C286.421874,17.9485708 286.282227,18.6256474 286.282227,19.3535156 L286.282227,19.4804688 Z M301.46582,34.8417969 C301.58431,34.6048165 301.68164,34.3509128 301.757812,34.0800781 C301.833985,33.8092434 301.87207,33.5299494 301.87207,33.2421875 C301.87207,32.8359355 301.804363,32.4508482 301.668945,32.0869141 C301.533528,31.72298 301.338868,31.3886734 301.084961,31.0839844 C300.526364,30.3899705 299.891605,29.7636747 299.180664,29.2050781 C298.469723,28.6464816 297.708012,28.1682963 296.895508,27.7705078 C296.083004,27.3727194 295.219731,27.0680349 294.305664,26.8564453 C293.391597,26.6448557 292.452153,26.5390625 291.487305,26.5390625 C290.522456,26.5390625 289.587244,26.6448557 288.681641,26.8564453 C287.776037,27.0680349 286.912765,27.3727194 286.091797,27.7705078 C285.270829,28.1682963 284.509118,28.6507133 283.806641,29.2177734 C283.104163,29.7848336 282.465172,30.4153611 281.889648,31.109375 C281.652668,31.3971369 281.466472,31.72298 281.331055,32.0869141 C281.195637,32.4508482 281.12793,32.8359355 281.12793,33.2421875 C281.12793,33.5299494 281.161784,33.8092434 281.229492,34.0800781 C281.297201,34.3509128 281.398762,34.61328 281.53418,34.8671875 C281.838869,35.4596384 282.278968,35.9378237 282.854492,36.3017578 C283.430016,36.6656919 284.073239,36.8476562 284.78418,36.8476562 L298.21582,36.8476562 C298.926761,36.8476562 299.569984,36.6614602 300.145508,36.2890625 C300.721032,35.9166648 301.161131,35.4342478 301.46582,34.8417969 Z" id=""></path>
            </g>
        </g>
    </g>
</svg>